<svg width="12" height="12" viewBox="0 0 12 12" fill="none" xmlns="http://www.w3.org/2000/svg">
<mask id="mask0" mask-type="alpha" maskUnits="userSpaceOnUse" x="0" y="0" width="12" height="12">
<rect width="12" height="12" fill="#C4C4C4"/>
</mask>
<g mask="url(#mask0)">
<path d="M6.02057 8.73818L8.90861 4.89278C8.96816 4.81054 8.99966 4.71729 9 4.62232C9.00033 4.52735 8.96948 4.43396 8.91051 4.35145C8.85155 4.26894 8.76652 4.20019 8.66389 4.15202C8.56127 4.10386 8.44462 4.07797 8.32555 4.07692L2.54945 4.07692C2.43039 4.07797 2.31373 4.10386 2.21111 4.15202C2.10848 4.20019 2.02345 4.26894 1.96449 4.35145C1.90552 4.43396 1.87467 4.52735 1.875 4.62232C1.87534 4.71729 1.90684 4.81053 1.96639 4.89278L4.85443 8.73818C4.91522 8.8181 5.00081 8.88419 5.10294 8.93005C5.20507 8.97591 5.3203 9 5.4375 9C5.5547 9 5.66993 8.97591 5.77206 8.93005C5.87419 8.88419 5.95978 8.8181 6.02057 8.73818Z" fill="white"/>
</g>
</svg>
